<svg xmlns="http://www.w3.org/2000/svg" xmlns:xlink="http://www.w3.org/1999/xlink" width="500" zoomAndPan="magnify" viewBox="0 0 375 374.999991" height="500" preserveAspectRatio="xMidYMid meet" version="1.0"><defs><g/><clipPath id="id1"><path d="M 128.726562 85.398438 L 246.175781 85.398438 L 246.175781 206.898438 L 128.726562 206.898438 Z M 128.726562 85.398438 " clip-rule="nonzero"/></clipPath></defs><rect x="-37.5" width="450" fill="#ffffff" y="-37.499999" height="449.999989" fill-opacity="1"/><rect x="-37.5" width="450" fill="#ffffff" y="-37.499999" height="449.999989" fill-opacity="1"/><rect x="-37.5" width="450" fill="#ffffff" y="-37.499999" height="449.999989" fill-opacity="1"/><rect x="-37.5" width="450" fill="#ffffff" y="-37.499999" height="449.999989" fill-opacity="1"/><g fill="#051c34" fill-opacity="1"><g transform="translate(56.800782, 238.658437)"><g><path d="M 7.203125 -21.0625 L 7.203125 -14.71875 L 14.96875 -14.71875 C 15.59375 -14.71875 16.113281 -14.519531 16.53125 -14.125 C 16.957031 -13.726562 17.171875 -13.21875 17.171875 -12.59375 C 17.171875 -12.070312 16.957031 -11.601562 16.53125 -11.1875 C 16.113281 -10.78125 15.59375 -10.578125 14.96875 -10.578125 L 7.203125 -10.578125 L 7.203125 -2.203125 C 7.203125 -1.578125 6.976562 -1.050781 6.53125 -0.625 C 6.09375 -0.207031 5.570312 0 4.96875 0 C 4.289062 0 3.742188 -0.203125 3.328125 -0.609375 C 2.910156 -1.015625 2.703125 -1.546875 2.703125 -2.203125 L 2.703125 -23 C 2.703125 -23.625 2.910156 -24.144531 3.328125 -24.5625 C 3.742188 -24.988281 4.265625 -25.203125 4.890625 -25.203125 L 16.59375 -25.203125 C 17.21875 -25.203125 17.738281 -25.003906 18.15625 -24.609375 C 18.582031 -24.210938 18.796875 -23.703125 18.796875 -23.078125 C 18.796875 -22.546875 18.582031 -22.078125 18.15625 -21.671875 C 17.738281 -21.265625 17.21875 -21.0625 16.59375 -21.0625 Z M 7.203125 -21.0625 "/></g></g></g><g fill="#051c34" fill-opacity="1"><g transform="translate(77.032825, 238.658437)"><g><path d="M 19.625 -10.078125 C 19.59375 -9.503906 19.359375 -9.035156 18.921875 -8.671875 C 18.492188 -8.316406 17.992188 -8.140625 17.421875 -8.140625 L 5.546875 -8.140625 C 5.828125 -6.722656 6.484375 -5.609375 7.515625 -4.796875 C 8.554688 -3.992188 9.722656 -3.59375 11.015625 -3.59375 C 11.992188 -3.59375 12.757812 -3.679688 13.3125 -3.859375 C 13.863281 -4.046875 14.300781 -4.238281 14.625 -4.4375 C 14.957031 -4.644531 15.179688 -4.785156 15.296875 -4.859375 C 15.734375 -5.078125 16.144531 -5.1875 16.53125 -5.1875 C 17.03125 -5.1875 17.457031 -5.003906 17.8125 -4.640625 C 18.175781 -4.285156 18.359375 -3.867188 18.359375 -3.390625 C 18.359375 -2.734375 18.023438 -2.144531 17.359375 -1.625 C 16.679688 -1.070312 15.773438 -0.601562 14.640625 -0.21875 C 13.515625 0.164062 12.378906 0.359375 11.234375 0.359375 C 9.210938 0.359375 7.453125 -0.0546875 5.953125 -0.890625 C 4.453125 -1.734375 3.296875 -2.894531 2.484375 -4.375 C 1.671875 -5.851562 1.265625 -7.515625 1.265625 -9.359375 C 1.265625 -11.421875 1.695312 -13.234375 2.5625 -14.796875 C 3.425781 -16.359375 4.5625 -17.550781 5.96875 -18.375 C 7.382812 -19.207031 8.898438 -19.625 10.515625 -19.625 C 12.097656 -19.625 13.585938 -19.191406 14.984375 -18.328125 C 16.390625 -17.460938 17.515625 -16.296875 18.359375 -14.828125 C 19.203125 -13.367188 19.625 -11.785156 19.625 -10.078125 Z M 10.515625 -15.65625 C 7.734375 -15.65625 6.085938 -14.347656 5.578125 -11.734375 L 15.015625 -11.734375 L 15.015625 -11.984375 C 14.921875 -12.992188 14.425781 -13.859375 13.53125 -14.578125 C 12.644531 -15.296875 11.640625 -15.65625 10.515625 -15.65625 Z M 10.515625 -15.65625 "/></g></g></g><g fill="#051c34" fill-opacity="1"><g transform="translate(97.912866, 238.658437)"><g><path d="M 7.015625 -2.203125 C 7.015625 -1.578125 6.804688 -1.050781 6.390625 -0.625 C 5.972656 -0.207031 5.453125 0 4.828125 0 C 4.222656 0 3.71875 -0.207031 3.3125 -0.625 C 2.90625 -1.050781 2.703125 -1.578125 2.703125 -2.203125 L 2.703125 -24.4375 C 2.703125 -25.0625 2.910156 -25.582031 3.328125 -26 C 3.742188 -26.425781 4.265625 -26.640625 4.890625 -26.640625 C 5.492188 -26.640625 6 -26.425781 6.40625 -26 C 6.8125 -25.582031 7.015625 -25.0625 7.015625 -24.4375 Z M 7.015625 -2.203125 "/></g></g></g><g fill="#051c34" fill-opacity="1"><g transform="translate(107.632882, 238.658437)"><g><path d="M 6.40625 -2.203125 C 6.40625 -1.578125 6.203125 -1.050781 5.796875 -0.625 C 5.390625 -0.207031 4.875 0 4.25 0 C 3.625 0 3.109375 -0.207031 2.703125 -0.625 C 2.296875 -1.050781 2.09375 -1.578125 2.09375 -2.203125 L 2.09375 -17.0625 C 2.09375 -17.6875 2.296875 -18.207031 2.703125 -18.625 C 3.109375 -19.050781 3.625 -19.265625 4.25 -19.265625 C 4.875 -19.265625 5.390625 -19.050781 5.796875 -18.625 C 6.203125 -18.207031 6.40625 -17.6875 6.40625 -17.0625 Z M 4.203125 -21.59375 C 3.390625 -21.59375 2.8125 -21.722656 2.46875 -21.984375 C 2.132812 -22.253906 1.96875 -22.726562 1.96875 -23.40625 L 1.96875 -24.078125 C 1.96875 -24.753906 2.148438 -25.222656 2.515625 -25.484375 C 2.878906 -25.753906 3.457031 -25.890625 4.25 -25.890625 C 5.082031 -25.890625 5.664062 -25.753906 6 -25.484375 C 6.34375 -25.222656 6.515625 -24.753906 6.515625 -24.078125 L 6.515625 -23.40625 C 6.515625 -22.707031 6.335938 -22.226562 5.984375 -21.96875 C 5.640625 -21.71875 5.046875 -21.59375 4.203125 -21.59375 Z M 4.203125 -21.59375 "/></g></g></g><g fill="#051c34" fill-opacity="1"><g transform="translate(116.128895, 238.658437)"><g><path d="M 12.3125 -19.625 C 13.96875 -19.625 15.46875 -19.195312 16.8125 -18.34375 C 18.15625 -17.488281 19.21875 -16.304688 20 -14.796875 C 20.78125 -13.285156 21.171875 -11.566406 21.171875 -9.640625 C 21.171875 -7.722656 20.785156 -6.003906 20.015625 -4.484375 C 19.242188 -2.960938 18.191406 -1.773438 16.859375 -0.921875 C 15.535156 -0.0664062 14.066406 0.359375 12.453125 0.359375 C 11.304688 0.359375 10.222656 0.125 9.203125 -0.34375 C 8.179688 -0.8125 7.332031 -1.378906 6.65625 -2.046875 L 6.65625 5 C 6.65625 5.625 6.453125 6.144531 6.046875 6.5625 C 5.640625 6.988281 5.125 7.203125 4.5 7.203125 C 3.875 7.203125 3.359375 6.992188 2.953125 6.578125 C 2.546875 6.171875 2.34375 5.644531 2.34375 5 L 2.34375 -17.0625 C 2.34375 -17.6875 2.546875 -18.207031 2.953125 -18.625 C 3.359375 -19.050781 3.875 -19.265625 4.5 -19.265625 C 5.125 -19.265625 5.640625 -19.050781 6.046875 -18.625 C 6.453125 -18.207031 6.65625 -17.6875 6.65625 -17.0625 L 6.65625 -16.921875 C 7.238281 -17.640625 8.046875 -18.269531 9.078125 -18.8125 C 10.109375 -19.351562 11.1875 -19.625 12.3125 -19.625 Z M 11.765625 -3.59375 C 13.304688 -3.59375 14.566406 -4.171875 15.546875 -5.328125 C 16.535156 -6.484375 17.03125 -7.921875 17.03125 -9.640625 C 17.03125 -11.367188 16.539062 -12.800781 15.5625 -13.9375 C 14.59375 -15.082031 13.328125 -15.65625 11.765625 -15.65625 C 10.210938 -15.65625 8.941406 -15.082031 7.953125 -13.9375 C 6.972656 -12.800781 6.484375 -11.367188 6.484375 -9.640625 C 6.484375 -7.921875 6.972656 -6.484375 7.953125 -5.328125 C 8.941406 -4.171875 10.210938 -3.59375 11.765625 -3.59375 Z M 11.765625 -3.59375 "/></g></g></g><g fill="#051c34" fill-opacity="1"><g transform="translate(138.556945, 238.658437)"><g><path d="M 19.625 -10.078125 C 19.59375 -9.503906 19.359375 -9.035156 18.921875 -8.671875 C 18.492188 -8.316406 17.992188 -8.140625 17.421875 -8.140625 L 5.546875 -8.140625 C 5.828125 -6.722656 6.484375 -5.609375 7.515625 -4.796875 C 8.554688 -3.992188 9.722656 -3.59375 11.015625 -3.59375 C 11.992188 -3.59375 12.757812 -3.679688 13.3125 -3.859375 C 13.863281 -4.046875 14.300781 -4.238281 14.625 -4.4375 C 14.957031 -4.644531 15.179688 -4.785156 15.296875 -4.859375 C 15.734375 -5.078125 16.144531 -5.1875 16.53125 -5.1875 C 17.03125 -5.1875 17.457031 -5.003906 17.8125 -4.640625 C 18.175781 -4.285156 18.359375 -3.867188 18.359375 -3.390625 C 18.359375 -2.734375 18.023438 -2.144531 17.359375 -1.625 C 16.679688 -1.070312 15.773438 -0.601562 14.640625 -0.21875 C 13.515625 0.164062 12.378906 0.359375 11.234375 0.359375 C 9.210938 0.359375 7.453125 -0.0546875 5.953125 -0.890625 C 4.453125 -1.734375 3.296875 -2.894531 2.484375 -4.375 C 1.671875 -5.851562 1.265625 -7.515625 1.265625 -9.359375 C 1.265625 -11.421875 1.695312 -13.234375 2.5625 -14.796875 C 3.425781 -16.359375 4.5625 -17.550781 5.96875 -18.375 C 7.382812 -19.207031 8.898438 -19.625 10.515625 -19.625 C 12.097656 -19.625 13.585938 -19.191406 14.984375 -18.328125 C 16.390625 -17.460938 17.515625 -16.296875 18.359375 -14.828125 C 19.203125 -13.367188 19.625 -11.785156 19.625 -10.078125 Z M 10.515625 -15.65625 C 7.734375 -15.65625 6.085938 -14.347656 5.578125 -11.734375 L 15.015625 -11.734375 L 15.015625 -11.984375 C 14.921875 -12.992188 14.425781 -13.859375 13.53125 -14.578125 C 12.644531 -15.296875 11.640625 -15.65625 10.515625 -15.65625 Z M 10.515625 -15.65625 "/></g></g></g><g fill="#051c34" fill-opacity="1"><g transform="translate(159.436986, 238.658437)"><g/></g></g><g fill="#051c34" fill-opacity="1"><g transform="translate(169.51701, 238.658437)"><g><path d="M 17.8125 -13.96875 C 19.09375 -13.46875 20.132812 -12.695312 20.9375 -11.65625 C 21.738281 -10.625 22.140625 -9.296875 22.140625 -7.671875 C 22.140625 -4.816406 21.320312 -2.820312 19.6875 -1.6875 C 18.0625 -0.5625 16.117188 0 13.859375 0 L 4.890625 0 C 4.265625 0 3.742188 -0.207031 3.328125 -0.625 C 2.910156 -1.050781 2.703125 -1.578125 2.703125 -2.203125 L 2.703125 -23 C 2.703125 -23.625 2.910156 -24.144531 3.328125 -24.5625 C 3.742188 -24.988281 4.265625 -25.203125 4.890625 -25.203125 L 13.96875 -25.203125 C 18.53125 -25.203125 20.8125 -23.066406 20.8125 -18.796875 C 20.8125 -17.710938 20.550781 -16.753906 20.03125 -15.921875 C 19.519531 -15.097656 18.78125 -14.445312 17.8125 -13.96875 Z M 16.125 -18 C 16.125 -18.976562 15.878906 -19.710938 15.390625 -20.203125 C 14.898438 -20.703125 14.207031 -20.953125 13.3125 -20.953125 L 7.375 -20.953125 L 7.375 -15.34375 L 13.421875 -15.34375 C 14.148438 -15.34375 14.78125 -15.582031 15.3125 -16.0625 C 15.851562 -16.539062 16.125 -17.1875 16.125 -18 Z M 13.859375 -4.140625 C 14.984375 -4.140625 15.863281 -4.4375 16.5 -5.03125 C 17.132812 -5.632812 17.453125 -6.515625 17.453125 -7.671875 C 17.453125 -9.085938 17.082031 -10.007812 16.34375 -10.4375 C 15.601562 -10.875 14.691406 -11.09375 13.609375 -11.09375 L 7.375 -11.09375 L 7.375 -4.140625 Z M 13.859375 -4.140625 "/></g></g></g><g fill="#051c34" fill-opacity="1"><g transform="translate(193.097056, 238.658437)"><g><path d="M 19.625 -10.078125 C 19.59375 -9.503906 19.359375 -9.035156 18.921875 -8.671875 C 18.492188 -8.316406 17.992188 -8.140625 17.421875 -8.140625 L 5.546875 -8.140625 C 5.828125 -6.722656 6.484375 -5.609375 7.515625 -4.796875 C 8.554688 -3.992188 9.722656 -3.59375 11.015625 -3.59375 C 11.992188 -3.59375 12.757812 -3.679688 13.3125 -3.859375 C 13.863281 -4.046875 14.300781 -4.238281 14.625 -4.4375 C 14.957031 -4.644531 15.179688 -4.785156 15.296875 -4.859375 C 15.734375 -5.078125 16.144531 -5.1875 16.53125 -5.1875 C 17.03125 -5.1875 17.457031 -5.003906 17.8125 -4.640625 C 18.175781 -4.285156 18.359375 -3.867188 18.359375 -3.390625 C 18.359375 -2.734375 18.023438 -2.144531 17.359375 -1.625 C 16.679688 -1.070312 15.773438 -0.601562 14.640625 -0.21875 C 13.515625 0.164062 12.378906 0.359375 11.234375 0.359375 C 9.210938 0.359375 7.453125 -0.0546875 5.953125 -0.890625 C 4.453125 -1.734375 3.296875 -2.894531 2.484375 -4.375 C 1.671875 -5.851562 1.265625 -7.515625 1.265625 -9.359375 C 1.265625 -11.421875 1.695312 -13.234375 2.5625 -14.796875 C 3.425781 -16.359375 4.5625 -17.550781 5.96875 -18.375 C 7.382812 -19.207031 8.898438 -19.625 10.515625 -19.625 C 12.097656 -19.625 13.585938 -19.191406 14.984375 -18.328125 C 16.390625 -17.460938 17.515625 -16.296875 18.359375 -14.828125 C 19.203125 -13.367188 19.625 -11.785156 19.625 -10.078125 Z M 10.515625 -15.65625 C 7.734375 -15.65625 6.085938 -14.347656 5.578125 -11.734375 L 15.015625 -11.734375 L 15.015625 -11.984375 C 14.921875 -12.992188 14.425781 -13.859375 13.53125 -14.578125 C 12.644531 -15.296875 11.640625 -15.65625 10.515625 -15.65625 Z M 10.515625 -15.65625 "/></g></g></g><g fill="#051c34" fill-opacity="1"><g transform="translate(213.977097, 238.658437)"><g><path d="M 7.015625 -2.203125 C 7.015625 -1.578125 6.804688 -1.050781 6.390625 -0.625 C 5.972656 -0.207031 5.453125 0 4.828125 0 C 4.222656 0 3.71875 -0.207031 3.3125 -0.625 C 2.90625 -1.050781 2.703125 -1.578125 2.703125 -2.203125 L 2.703125 -24.4375 C 2.703125 -25.0625 2.910156 -25.582031 3.328125 -26 C 3.742188 -26.425781 4.265625 -26.640625 4.890625 -26.640625 C 5.492188 -26.640625 6 -26.425781 6.40625 -26 C 6.8125 -25.582031 7.015625 -25.0625 7.015625 -24.4375 Z M 7.015625 -2.203125 "/></g></g></g><g fill="#051c34" fill-opacity="1"><g transform="translate(223.697113, 238.658437)"><g><path d="M 6.40625 -2.203125 C 6.40625 -1.578125 6.203125 -1.050781 5.796875 -0.625 C 5.390625 -0.207031 4.875 0 4.25 0 C 3.625 0 3.109375 -0.207031 2.703125 -0.625 C 2.296875 -1.050781 2.09375 -1.578125 2.09375 -2.203125 L 2.09375 -17.0625 C 2.09375 -17.6875 2.296875 -18.207031 2.703125 -18.625 C 3.109375 -19.050781 3.625 -19.265625 4.25 -19.265625 C 4.875 -19.265625 5.390625 -19.050781 5.796875 -18.625 C 6.203125 -18.207031 6.40625 -17.6875 6.40625 -17.0625 Z M 4.203125 -21.59375 C 3.390625 -21.59375 2.8125 -21.722656 2.46875 -21.984375 C 2.132812 -22.253906 1.96875 -22.726562 1.96875 -23.40625 L 1.96875 -24.078125 C 1.96875 -24.753906 2.148438 -25.222656 2.515625 -25.484375 C 2.878906 -25.753906 3.457031 -25.890625 4.25 -25.890625 C 5.082031 -25.890625 5.664062 -25.753906 6 -25.484375 C 6.34375 -25.222656 6.515625 -24.753906 6.515625 -24.078125 L 6.515625 -23.40625 C 6.515625 -22.707031 6.335938 -22.226562 5.984375 -21.96875 C 5.640625 -21.71875 5.046875 -21.59375 4.203125 -21.59375 Z M 4.203125 -21.59375 "/></g></g></g><g fill="#051c34" fill-opacity="1"><g transform="translate(232.193126, 238.658437)"><g><path d="M 1.21875 -2.984375 C 1.007812 -3.273438 0.90625 -3.632812 0.90625 -4.0625 C 0.90625 -4.6875 1.21875 -5.21875 1.84375 -5.65625 C 2.175781 -5.863281 2.519531 -5.96875 2.875 -5.96875 C 3.382812 -5.96875 3.863281 -5.742188 4.3125 -5.296875 C 5.039062 -4.546875 5.789062 -3.988281 6.5625 -3.625 C 7.34375 -3.269531 8.285156 -3.09375 9.390625 -3.09375 C 11.265625 -3.164062 12.203125 -3.875 12.203125 -5.21875 C 12.203125 -5.914062 11.882812 -6.441406 11.25 -6.796875 C 10.613281 -7.160156 9.625 -7.523438 8.28125 -7.890625 C 6.882812 -8.265625 5.75 -8.644531 4.875 -9.03125 C 4 -9.414062 3.242188 -10 2.609375 -10.78125 C 1.972656 -11.5625 1.65625 -12.613281 1.65625 -13.9375 C 1.65625 -15.082031 1.984375 -16.082031 2.640625 -16.9375 C 3.304688 -17.789062 4.171875 -18.453125 5.234375 -18.921875 C 6.304688 -19.390625 7.441406 -19.625 8.640625 -19.625 C 9.859375 -19.625 11.078125 -19.394531 12.296875 -18.9375 C 13.523438 -18.476562 14.488281 -17.804688 15.1875 -16.921875 C 15.5 -16.535156 15.65625 -16.101562 15.65625 -15.625 C 15.65625 -15.070312 15.425781 -14.613281 14.96875 -14.25 C 14.632812 -13.988281 14.253906 -13.859375 13.828125 -13.859375 C 13.296875 -13.859375 12.863281 -14.023438 12.53125 -14.359375 C 12.09375 -14.890625 11.53125 -15.3125 10.84375 -15.625 C 10.164062 -15.9375 9.394531 -16.09375 8.53125 -16.09375 C 6.707031 -16.09375 5.796875 -15.429688 5.796875 -14.109375 C 5.796875 -13.578125 5.960938 -13.148438 6.296875 -12.828125 C 6.628906 -12.503906 7.054688 -12.253906 7.578125 -12.078125 C 8.097656 -11.898438 8.820312 -11.675781 9.75 -11.40625 C 11.050781 -11.050781 12.132812 -10.679688 13 -10.296875 C 13.863281 -9.910156 14.59375 -9.320312 15.1875 -8.53125 C 15.789062 -7.738281 16.09375 -6.695312 16.09375 -5.40625 C 16.09375 -4.226562 15.742188 -3.203125 15.046875 -2.328125 C 14.347656 -1.453125 13.453125 -0.785156 12.359375 -0.328125 C 11.273438 0.128906 10.15625 0.359375 9 0.359375 C 7.414062 0.359375 5.9375 0.0976562 4.5625 -0.421875 C 3.195312 -0.953125 2.082031 -1.804688 1.21875 -2.984375 Z M 1.21875 -2.984375 "/></g></g></g><g fill="#051c34" fill-opacity="1"><g transform="translate(249.54516, 238.658437)"><g><path d="M 17.921875 -19.625 C 18.546875 -19.625 19.0625 -19.414062 19.46875 -19 C 19.882812 -18.59375 20.09375 -18.066406 20.09375 -17.421875 L 20.09375 -2.203125 C 20.09375 -1.578125 19.882812 -1.050781 19.46875 -0.625 C 19.0625 -0.207031 18.546875 0 17.921875 0 C 17.296875 0 16.785156 -0.203125 16.390625 -0.609375 C 15.992188 -1.015625 15.785156 -1.53125 15.765625 -2.15625 C 15.171875 -1.457031 14.363281 -0.863281 13.34375 -0.375 C 12.320312 0.113281 11.242188 0.359375 10.109375 0.359375 C 8.453125 0.359375 6.953125 -0.0664062 5.609375 -0.921875 C 4.265625 -1.773438 3.203125 -2.957031 2.421875 -4.46875 C 1.648438 -5.976562 1.265625 -7.691406 1.265625 -9.609375 C 1.265625 -11.523438 1.644531 -13.242188 2.40625 -14.765625 C 3.175781 -16.296875 4.226562 -17.488281 5.5625 -18.34375 C 6.894531 -19.195312 8.363281 -19.625 9.96875 -19.625 C 11.125 -19.625 12.203125 -19.410156 13.203125 -18.984375 C 14.210938 -18.566406 15.066406 -18.035156 15.765625 -17.390625 L 15.765625 -17.421875 C 15.765625 -18.046875 15.96875 -18.566406 16.375 -18.984375 C 16.78125 -19.410156 17.296875 -19.625 17.921875 -19.625 Z M 10.65625 -3.59375 C 12.21875 -3.59375 13.488281 -4.160156 14.46875 -5.296875 C 15.457031 -6.441406 15.953125 -7.878906 15.953125 -9.609375 C 15.953125 -11.335938 15.457031 -12.773438 14.46875 -13.921875 C 13.488281 -15.078125 12.21875 -15.65625 10.65625 -15.65625 C 9.125 -15.65625 7.863281 -15.078125 6.875 -13.921875 C 5.894531 -12.773438 5.40625 -11.335938 5.40625 -9.609375 C 5.40625 -7.878906 5.890625 -6.441406 6.859375 -5.296875 C 7.828125 -4.160156 9.09375 -3.59375 10.65625 -3.59375 Z M 10.65625 -20.5625 C 10.414062 -20.5625 10.15625 -20.671875 9.875 -20.890625 C 9.601562 -21.109375 9.484375 -21.394531 9.515625 -21.75 C 9.515625 -21.96875 9.585938 -22.195312 9.734375 -22.4375 L 11.8125 -26.109375 C 12.050781 -26.535156 12.335938 -26.878906 12.671875 -27.140625 C 13.015625 -27.410156 13.390625 -27.546875 13.796875 -27.546875 C 14.441406 -27.546875 14.925781 -27.378906 15.25 -27.046875 C 15.570312 -26.710938 15.722656 -26.28125 15.703125 -25.75 C 15.648438 -25.195312 15.421875 -24.679688 15.015625 -24.203125 L 12.28125 -21.171875 C 11.894531 -20.765625 11.351562 -20.5625 10.65625 -20.5625 Z M 10.65625 -20.5625 "/></g></g></g><g fill="#051c34" fill-opacity="1"><g transform="translate(271.973221, 238.658437)"><g><path d="M 12.34375 -19.625 C 13.0625 -19.625 13.664062 -19.414062 14.15625 -19 C 14.65625 -18.59375 14.90625 -18.113281 14.90625 -17.5625 C 14.90625 -16.820312 14.710938 -16.265625 14.328125 -15.890625 C 13.941406 -15.523438 13.484375 -15.34375 12.953125 -15.34375 C 12.597656 -15.34375 12.191406 -15.425781 11.734375 -15.59375 C 11.660156 -15.613281 11.5 -15.660156 11.25 -15.734375 C 11 -15.804688 10.726562 -15.84375 10.4375 -15.84375 C 9.8125 -15.84375 9.210938 -15.648438 8.640625 -15.265625 C 8.066406 -14.878906 7.59375 -14.296875 7.21875 -13.515625 C 6.84375 -12.734375 6.65625 -11.804688 6.65625 -10.734375 L 6.65625 -2.203125 C 6.65625 -1.578125 6.453125 -1.050781 6.046875 -0.625 C 5.640625 -0.207031 5.125 0 4.5 0 C 3.875 0 3.359375 -0.207031 2.953125 -0.625 C 2.546875 -1.050781 2.34375 -1.578125 2.34375 -2.203125 L 2.34375 -17.0625 C 2.34375 -17.6875 2.546875 -18.207031 2.953125 -18.625 C 3.359375 -19.050781 3.875 -19.265625 4.5 -19.265625 C 5.125 -19.265625 5.640625 -19.050781 6.046875 -18.625 C 6.453125 -18.207031 6.65625 -17.6875 6.65625 -17.0625 L 6.65625 -16.59375 C 7.207031 -17.582031 8 -18.332031 9.03125 -18.84375 C 10.0625 -19.363281 11.164062 -19.625 12.34375 -19.625 Z M 12.34375 -19.625 "/></g></g></g><g fill="#051c34" fill-opacity="1"><g transform="translate(287.597243, 238.658437)"><g><path d="M 6.40625 -2.203125 C 6.40625 -1.578125 6.203125 -1.050781 5.796875 -0.625 C 5.390625 -0.207031 4.875 0 4.25 0 C 3.625 0 3.109375 -0.207031 2.703125 -0.625 C 2.296875 -1.050781 2.09375 -1.578125 2.09375 -2.203125 L 2.09375 -17.0625 C 2.09375 -17.6875 2.296875 -18.207031 2.703125 -18.625 C 3.109375 -19.050781 3.625 -19.265625 4.25 -19.265625 C 4.875 -19.265625 5.390625 -19.050781 5.796875 -18.625 C 6.203125 -18.207031 6.40625 -17.6875 6.40625 -17.0625 Z M 4.203125 -21.59375 C 3.390625 -21.59375 2.8125 -21.722656 2.46875 -21.984375 C 2.132812 -22.253906 1.96875 -22.726562 1.96875 -23.40625 L 1.96875 -24.078125 C 1.96875 -24.753906 2.148438 -25.222656 2.515625 -25.484375 C 2.878906 -25.753906 3.457031 -25.890625 4.25 -25.890625 C 5.082031 -25.890625 5.664062 -25.753906 6 -25.484375 C 6.34375 -25.222656 6.515625 -24.753906 6.515625 -24.078125 L 6.515625 -23.40625 C 6.515625 -22.707031 6.335938 -22.226562 5.984375 -21.96875 C 5.640625 -21.71875 5.046875 -21.59375 4.203125 -21.59375 Z M 4.203125 -21.59375 "/></g></g></g><g fill="#051c34" fill-opacity="1"><g transform="translate(296.093245, 238.658437)"><g><path d="M 20.84375 -9.609375 C 20.84375 -7.691406 20.410156 -5.96875 19.546875 -4.4375 C 18.679688 -2.914062 17.5 -1.734375 16 -0.890625 C 14.5 -0.0546875 12.847656 0.359375 11.046875 0.359375 C 9.222656 0.359375 7.566406 -0.0546875 6.078125 -0.890625 C 4.597656 -1.734375 3.425781 -2.914062 2.5625 -4.4375 C 1.695312 -5.96875 1.265625 -7.691406 1.265625 -9.609375 C 1.265625 -11.523438 1.695312 -13.242188 2.5625 -14.765625 C 3.425781 -16.296875 4.597656 -17.488281 6.078125 -18.34375 C 7.566406 -19.195312 9.222656 -19.625 11.046875 -19.625 C 12.847656 -19.625 14.5 -19.195312 16 -18.34375 C 17.5 -17.488281 18.679688 -16.296875 19.546875 -14.765625 C 20.410156 -13.242188 20.84375 -11.523438 20.84375 -9.609375 Z M 16.53125 -9.609375 C 16.53125 -10.785156 16.28125 -11.832031 15.78125 -12.75 C 15.289062 -13.675781 14.628906 -14.390625 13.796875 -14.890625 C 12.972656 -15.398438 12.054688 -15.65625 11.046875 -15.65625 C 10.046875 -15.65625 9.128906 -15.398438 8.296875 -14.890625 C 7.472656 -14.390625 6.8125 -13.675781 6.3125 -12.75 C 5.820312 -11.832031 5.578125 -10.785156 5.578125 -9.609375 C 5.578125 -8.429688 5.820312 -7.382812 6.3125 -6.46875 C 6.8125 -5.5625 7.472656 -4.851562 8.296875 -4.34375 C 9.128906 -3.84375 10.046875 -3.59375 11.046875 -3.59375 C 12.054688 -3.59375 12.972656 -3.84375 13.796875 -4.34375 C 14.628906 -4.851562 15.289062 -5.5625 15.78125 -6.46875 C 16.28125 -7.382812 16.53125 -8.429688 16.53125 -9.609375 Z M 16.53125 -9.609375 "/></g></g></g><g clip-path="url(#id1)"><path fill="#051c34" d="M 242.375 149.945312 L 234.800781 149.945312 L 234.800781 148.046875 C 234.800781 146.527344 234.207031 145.089844 233.140625 144.023438 C 231.539062 142.417969 229.0625 142.015625 227.007812 142.792969 C 226.761719 141.835938 226.277344 140.949219 225.566406 140.226562 C 223.960938 138.621094 221.488281 138.21875 219.429688 138.996094 C 219.183594 138.039062 218.699219 137.152344 217.988281 136.429688 C 215.835938 134.273438 212.089844 134.273438 209.9375 136.429688 C 209.226562 137.152344 208.742188 138.039062 208.496094 138.996094 C 206.441406 138.21875 203.964844 138.621094 202.363281 140.226562 C 201.296875 141.292969 200.703125 142.730469 200.703125 144.25 L 200.703125 149.945312 L 174.1875 149.945312 L 174.1875 144.25 C 174.1875 142.730469 173.59375 141.292969 172.519531 140.226562 C 170.925781 138.621094 168.449219 138.21875 166.394531 138.996094 C 166.148438 138.039062 165.664062 137.152344 164.941406 136.429688 C 162.800781 134.273438 159.054688 134.273438 156.914062 136.429688 C 156.191406 137.152344 155.707031 138.039062 155.449219 138.996094 C 153.402344 138.21875 150.929688 138.621094 149.335938 140.226562 C 148.613281 140.949219 148.128906 141.835938 147.871094 142.792969 C 145.828125 142.015625 143.351562 142.417969 141.757812 144.023438 C 140.683594 145.089844 140.089844 146.527344 140.089844 148.046875 L 140.089844 149.945312 L 132.515625 149.945312 L 132.515625 108.179688 L 242.375 108.179688 Z M 231.011719 172.382812 L 225.328125 187.570312 L 225.328125 191.710938 L 206.386719 191.710938 L 206.386719 187.125 L 205.828125 186.566406 C 203.351562 184.085938 196.917969 176.40625 196.917969 170.871094 L 196.917969 161.335938 C 196.917969 160.828125 197.109375 160.355469 197.476562 160 C 198.1875 159.277344 199.433594 159.277344 200.144531 160 C 200.511719 160.355469 200.703125 160.828125 200.703125 161.335938 L 200.703125 168.929688 L 204.492188 168.929688 L 204.492188 144.25 C 204.492188 143.742188 204.6875 143.269531 205.050781 142.902344 C 205.761719 142.191406 207.011719 142.191406 207.722656 142.902344 C 208.085938 143.269531 208.28125 143.742188 208.28125 144.25 L 208.28125 159.4375 L 212.070312 159.4375 L 212.070312 140.453125 C 212.070312 139.945312 212.261719 139.472656 212.628906 139.105469 C 213.339844 138.394531 214.589844 138.394531 215.296875 139.105469 C 215.664062 139.472656 215.859375 139.945312 215.859375 140.453125 L 215.859375 159.4375 L 219.644531 159.4375 L 219.644531 144.25 C 219.644531 143.742188 219.839844 143.269531 220.207031 142.902344 C 220.917969 142.191406 222.164062 142.191406 222.875 142.902344 C 223.242188 143.269531 223.433594 143.742188 223.433594 144.25 L 223.433594 159.4375 L 227.222656 159.4375 L 227.222656 148.046875 C 227.222656 147.539062 227.417969 147.066406 227.78125 146.699219 C 228.492188 145.988281 229.742188 145.988281 230.453125 146.699219 C 230.816406 147.066406 231.011719 147.539062 231.011719 148.046875 Z M 174.734375 160 C 175.457031 159.277344 176.703125 159.277344 177.414062 160 C 177.78125 160.355469 177.972656 160.828125 177.972656 161.335938 L 177.972656 170.871094 C 177.972656 176.40625 171.539062 184.085938 169.050781 186.566406 L 168.503906 187.125 L 168.503906 191.710938 L 149.5625 191.710938 L 149.5625 187.570312 L 143.878906 172.382812 L 143.878906 148.046875 C 143.878906 147.539062 144.074219 147.066406 144.4375 146.710938 C 145.148438 145.988281 146.398438 145.988281 147.109375 146.710938 C 147.472656 147.066406 147.667969 147.539062 147.667969 148.046875 L 147.667969 159.4375 L 151.457031 159.4375 L 151.457031 144.25 C 151.457031 143.742188 151.648438 143.269531 152.015625 142.914062 C 152.726562 142.191406 153.976562 142.191406 154.683594 142.914062 C 155.050781 143.269531 155.246094 143.742188 155.246094 144.25 L 155.246094 159.4375 L 159.03125 159.4375 L 159.03125 140.453125 C 159.03125 139.945312 159.226562 139.472656 159.59375 139.117188 C 160.304688 138.394531 161.550781 138.394531 162.261719 139.117188 C 162.628906 139.472656 162.820312 139.945312 162.820312 140.453125 L 162.820312 159.4375 L 166.609375 159.4375 L 166.609375 144.25 C 166.609375 143.742188 166.804688 143.269531 167.167969 142.914062 C 167.878906 142.191406 169.128906 142.191406 169.839844 142.914062 C 170.203125 143.269531 170.398438 143.742188 170.398438 144.25 L 170.398438 168.929688 L 174.1875 168.929688 L 174.1875 161.335938 C 174.1875 160.828125 174.378906 160.355469 174.734375 160 Z M 245.054688 105.492188 C 244.335938 104.78125 243.386719 104.382812 242.375 104.382812 L 189.339844 104.382812 L 189.339844 102.484375 C 189.339844 100.964844 188.746094 99.527344 187.671875 98.460938 C 186.605469 97.382812 185.175781 96.789062 183.65625 96.789062 L 172.292969 96.789062 C 171.785156 96.789062 171.3125 96.59375 170.957031 96.226562 C 170.589844 95.871094 170.398438 95.398438 170.398438 94.890625 C 170.398438 94.382812 170.589844 93.910156 170.957031 93.554688 C 171.3125 93.1875 171.785156 92.992188 172.292969 92.992188 L 195.023438 92.992188 C 196.539062 92.992188 197.972656 92.398438 199.046875 91.320312 C 200.113281 90.253906 200.703125 88.816406 200.703125 87.296875 L 200.703125 85.398438 L 196.917969 85.398438 L 196.917969 87.296875 C 196.917969 87.804688 196.722656 88.277344 196.355469 88.644531 C 196 89 195.527344 89.195312 195.023438 89.195312 L 172.292969 89.195312 C 170.773438 89.195312 169.34375 89.789062 168.277344 90.867188 C 167.203125 91.933594 166.609375 93.371094 166.609375 94.890625 C 166.609375 96.410156 167.203125 97.847656 168.277344 98.914062 C 169.34375 99.992188 170.773438 100.585938 172.292969 100.585938 L 183.65625 100.585938 C 184.164062 100.585938 184.636719 100.78125 184.992188 101.148438 C 185.359375 101.503906 185.550781 101.976562 185.550781 102.484375 L 185.550781 104.382812 L 132.515625 104.382812 C 131.503906 104.382812 130.554688 104.78125 129.835938 105.492188 C 129.125 106.214844 128.726562 107.164062 128.726562 108.179688 L 128.726562 149.945312 C 128.726562 150.960938 129.125 151.910156 129.835938 152.632812 C 130.546875 153.34375 131.503906 153.742188 132.515625 153.742188 L 140.089844 153.742188 L 140.089844 173.070312 L 145.773438 188.257812 L 145.773438 192.238281 C 145.492188 192.402344 145.226562 192.59375 144.988281 192.832031 C 144.277344 193.542969 143.878906 194.492188 143.878906 195.507812 L 143.878906 206.898438 L 147.667969 206.898438 L 147.667969 195.507812 L 170.398438 195.507812 L 170.398438 206.898438 L 174.1875 206.898438 L 174.1875 195.507812 C 174.1875 194.492188 173.789062 193.542969 173.078125 192.820312 C 172.839844 192.585938 172.570312 192.402344 172.292969 192.230469 L 172.292969 188.679688 C 174.414062 186.414062 181.761719 178.078125 181.761719 170.871094 L 181.761719 161.335938 C 181.761719 159.816406 181.171875 158.378906 180.09375 157.300781 C 178.554688 155.757812 176.1875 155.351562 174.1875 156.027344 L 174.1875 153.742188 L 200.703125 153.742188 L 200.703125 156.027344 C 198.703125 155.351562 196.335938 155.757812 194.796875 157.3125 C 193.71875 158.378906 193.128906 159.816406 193.128906 161.335938 L 193.128906 170.871094 C 193.128906 178.078125 200.480469 186.414062 202.597656 188.679688 L 202.597656 192.230469 C 202.320312 192.402344 202.050781 192.585938 201.8125 192.820312 C 201.101562 193.542969 200.703125 194.492188 200.703125 195.507812 L 200.703125 206.898438 L 204.492188 206.898438 L 204.492188 195.507812 L 227.222656 195.507812 L 227.222656 206.898438 L 231.011719 206.898438 L 231.011719 195.507812 C 231.011719 194.492188 230.613281 193.542969 229.902344 192.820312 C 229.664062 192.585938 229.398438 192.402344 229.117188 192.230469 L 229.117188 188.257812 L 234.800781 173.070312 L 234.800781 153.742188 L 242.375 153.742188 C 243.386719 153.742188 244.34375 153.34375 245.054688 152.632812 C 245.765625 151.917969 246.164062 150.960938 246.164062 149.945312 L 246.164062 108.179688 C 246.164062 107.164062 245.765625 106.207031 245.054688 105.492188 " fill-opacity="1" fill-rule="nonzero"/></g><path fill="#051c34" d="M 140.089844 111.976562 L 143.878906 111.976562 L 143.878906 115.773438 L 140.089844 115.773438 L 140.089844 111.976562 " fill-opacity="1" fill-rule="nonzero"/><path fill="#051c34" d="M 147.667969 111.976562 L 151.457031 111.976562 L 151.457031 115.773438 L 147.667969 115.773438 L 147.667969 111.976562 " fill-opacity="1" fill-rule="nonzero"/><path fill="#051c34" d="M 155.246094 111.976562 L 159.03125 111.976562 L 159.03125 115.773438 L 155.246094 115.773438 L 155.246094 111.976562 " fill-opacity="1" fill-rule="nonzero"/><path fill="#051c34" d="M 162.820312 111.976562 L 166.609375 111.976562 L 166.609375 115.773438 L 162.820312 115.773438 L 162.820312 111.976562 " fill-opacity="1" fill-rule="nonzero"/><path fill="#051c34" d="M 170.398438 111.976562 L 174.1875 111.976562 L 174.1875 115.773438 L 170.398438 115.773438 L 170.398438 111.976562 " fill-opacity="1" fill-rule="nonzero"/><path fill="#051c34" d="M 177.972656 111.976562 L 181.761719 111.976562 L 181.761719 115.773438 L 177.972656 115.773438 L 177.972656 111.976562 " fill-opacity="1" fill-rule="nonzero"/><path fill="#051c34" d="M 185.550781 111.976562 L 189.339844 111.976562 L 189.339844 115.773438 L 185.550781 115.773438 L 185.550781 111.976562 " fill-opacity="1" fill-rule="nonzero"/><path fill="#051c34" d="M 193.128906 111.976562 L 196.917969 111.976562 L 196.917969 115.773438 L 193.128906 115.773438 L 193.128906 111.976562 " fill-opacity="1" fill-rule="nonzero"/><path fill="#051c34" d="M 200.703125 111.976562 L 204.492188 111.976562 L 204.492188 115.773438 L 200.703125 115.773438 L 200.703125 111.976562 " fill-opacity="1" fill-rule="nonzero"/><path fill="#051c34" d="M 208.28125 111.976562 L 212.070312 111.976562 L 212.070312 115.773438 L 208.28125 115.773438 L 208.28125 111.976562 " fill-opacity="1" fill-rule="nonzero"/><path fill="#051c34" d="M 215.859375 111.976562 L 219.644531 111.976562 L 219.644531 115.773438 L 215.859375 115.773438 L 215.859375 111.976562 " fill-opacity="1" fill-rule="nonzero"/><path fill="#051c34" d="M 223.433594 111.976562 L 227.222656 111.976562 L 227.222656 115.773438 L 223.433594 115.773438 L 223.433594 111.976562 " fill-opacity="1" fill-rule="nonzero"/><path fill="#051c34" d="M 231.011719 111.976562 L 234.800781 111.976562 L 234.800781 115.773438 L 231.011719 115.773438 L 231.011719 111.976562 " fill-opacity="1" fill-rule="nonzero"/><path fill="#051c34" d="M 136.304688 119.570312 L 140.089844 119.570312 L 140.089844 123.367188 L 136.304688 123.367188 L 136.304688 119.570312 " fill-opacity="1" fill-rule="nonzero"/><path fill="#051c34" d="M 143.878906 119.570312 L 147.667969 119.570312 L 147.667969 123.367188 L 143.878906 123.367188 L 143.878906 119.570312 " fill-opacity="1" fill-rule="nonzero"/><path fill="#051c34" d="M 151.457031 119.570312 L 155.246094 119.570312 L 155.246094 123.367188 L 151.457031 123.367188 L 151.457031 119.570312 " fill-opacity="1" fill-rule="nonzero"/><path fill="#051c34" d="M 159.03125 119.570312 L 162.820312 119.570312 L 162.820312 123.367188 L 159.03125 123.367188 L 159.03125 119.570312 " fill-opacity="1" fill-rule="nonzero"/><path fill="#051c34" d="M 166.609375 119.570312 L 170.398438 119.570312 L 170.398438 123.367188 L 166.609375 123.367188 L 166.609375 119.570312 " fill-opacity="1" fill-rule="nonzero"/><path fill="#051c34" d="M 174.1875 119.570312 L 177.972656 119.570312 L 177.972656 123.367188 L 174.1875 123.367188 L 174.1875 119.570312 " fill-opacity="1" fill-rule="nonzero"/><path fill="#051c34" d="M 181.761719 119.570312 L 185.550781 119.570312 L 185.550781 123.367188 L 181.761719 123.367188 L 181.761719 119.570312 " fill-opacity="1" fill-rule="nonzero"/><path fill="#051c34" d="M 189.339844 119.570312 L 193.128906 119.570312 L 193.128906 123.367188 L 189.339844 123.367188 L 189.339844 119.570312 " fill-opacity="1" fill-rule="nonzero"/><path fill="#051c34" d="M 196.917969 119.570312 L 200.703125 119.570312 L 200.703125 123.367188 L 196.917969 123.367188 L 196.917969 119.570312 " fill-opacity="1" fill-rule="nonzero"/><path fill="#051c34" d="M 204.492188 119.570312 L 208.28125 119.570312 L 208.28125 123.367188 L 204.492188 123.367188 L 204.492188 119.570312 " fill-opacity="1" fill-rule="nonzero"/><path fill="#051c34" d="M 212.070312 119.570312 L 215.859375 119.570312 L 215.859375 123.367188 L 212.070312 123.367188 L 212.070312 119.570312 " fill-opacity="1" fill-rule="nonzero"/><path fill="#051c34" d="M 219.644531 119.570312 L 223.433594 119.570312 L 223.433594 123.367188 L 219.644531 123.367188 L 219.644531 119.570312 " fill-opacity="1" fill-rule="nonzero"/><path fill="#051c34" d="M 227.222656 119.570312 L 231.011719 119.570312 L 231.011719 123.367188 L 227.222656 123.367188 L 227.222656 119.570312 " fill-opacity="1" fill-rule="nonzero"/><path fill="#051c34" d="M 234.800781 119.570312 L 238.585938 119.570312 L 238.585938 123.367188 L 234.800781 123.367188 L 234.800781 119.570312 " fill-opacity="1" fill-rule="nonzero"/><path fill="#051c34" d="M 140.089844 127.164062 L 143.878906 127.164062 L 143.878906 130.960938 L 140.089844 130.960938 L 140.089844 127.164062 " fill-opacity="1" fill-rule="nonzero"/><path fill="#051c34" d="M 147.667969 127.164062 L 151.457031 127.164062 L 151.457031 130.960938 L 147.667969 130.960938 L 147.667969 127.164062 " fill-opacity="1" fill-rule="nonzero"/><path fill="#051c34" d="M 155.246094 127.164062 L 159.03125 127.164062 L 159.03125 130.960938 L 155.246094 130.960938 L 155.246094 127.164062 " fill-opacity="1" fill-rule="nonzero"/><path fill="#051c34" d="M 162.820312 127.164062 L 166.609375 127.164062 L 166.609375 130.960938 L 162.820312 130.960938 L 162.820312 127.164062 " fill-opacity="1" fill-rule="nonzero"/><path fill="#051c34" d="M 170.398438 127.164062 L 174.1875 127.164062 L 174.1875 130.960938 L 170.398438 130.960938 L 170.398438 127.164062 " fill-opacity="1" fill-rule="nonzero"/><path fill="#051c34" d="M 177.972656 127.164062 L 181.761719 127.164062 L 181.761719 130.960938 L 177.972656 130.960938 L 177.972656 127.164062 " fill-opacity="1" fill-rule="nonzero"/><path fill="#051c34" d="M 185.550781 127.164062 L 189.339844 127.164062 L 189.339844 130.960938 L 185.550781 130.960938 L 185.550781 127.164062 " fill-opacity="1" fill-rule="nonzero"/><path fill="#051c34" d="M 193.128906 127.164062 L 196.917969 127.164062 L 196.917969 130.960938 L 193.128906 130.960938 L 193.128906 127.164062 " fill-opacity="1" fill-rule="nonzero"/><path fill="#051c34" d="M 200.703125 127.164062 L 204.492188 127.164062 L 204.492188 130.960938 L 200.703125 130.960938 L 200.703125 127.164062 " fill-opacity="1" fill-rule="nonzero"/><path fill="#051c34" d="M 208.28125 127.164062 L 212.070312 127.164062 L 212.070312 130.960938 L 208.28125 130.960938 L 208.28125 127.164062 " fill-opacity="1" fill-rule="nonzero"/><path fill="#051c34" d="M 215.859375 127.164062 L 219.644531 127.164062 L 219.644531 130.960938 L 215.859375 130.960938 L 215.859375 127.164062 " fill-opacity="1" fill-rule="nonzero"/><path fill="#051c34" d="M 223.433594 127.164062 L 227.222656 127.164062 L 227.222656 130.960938 L 223.433594 130.960938 L 223.433594 127.164062 " fill-opacity="1" fill-rule="nonzero"/><path fill="#051c34" d="M 231.011719 127.164062 L 234.800781 127.164062 L 234.800781 130.960938 L 231.011719 130.960938 L 231.011719 127.164062 " fill-opacity="1" fill-rule="nonzero"/><path fill="#051c34" d="M 136.304688 134.757812 L 140.089844 134.757812 L 140.089844 138.554688 L 136.304688 138.554688 L 136.304688 134.757812 " fill-opacity="1" fill-rule="nonzero"/><path fill="#051c34" d="M 143.878906 134.757812 L 147.667969 134.757812 L 147.667969 138.554688 L 143.878906 138.554688 L 143.878906 134.757812 " fill-opacity="1" fill-rule="nonzero"/><path fill="#051c34" d="M 174.1875 134.757812 L 177.972656 134.757812 L 177.972656 138.554688 L 174.1875 138.554688 L 174.1875 134.757812 " fill-opacity="1" fill-rule="nonzero"/><path fill="#051c34" d="M 181.761719 134.757812 L 185.550781 134.757812 L 185.550781 138.554688 L 181.761719 138.554688 L 181.761719 134.757812 " fill-opacity="1" fill-rule="nonzero"/><path fill="#051c34" d="M 189.339844 134.757812 L 193.128906 134.757812 L 193.128906 138.554688 L 189.339844 138.554688 L 189.339844 134.757812 " fill-opacity="1" fill-rule="nonzero"/><path fill="#051c34" d="M 196.917969 134.757812 L 200.703125 134.757812 L 200.703125 138.554688 L 196.917969 138.554688 L 196.917969 134.757812 " fill-opacity="1" fill-rule="nonzero"/><path fill="#051c34" d="M 227.222656 134.757812 L 231.011719 134.757812 L 231.011719 138.554688 L 227.222656 138.554688 L 227.222656 134.757812 " fill-opacity="1" fill-rule="nonzero"/><path fill="#051c34" d="M 234.800781 134.757812 L 238.585938 134.757812 L 238.585938 138.554688 L 234.800781 138.554688 L 234.800781 134.757812 " fill-opacity="1" fill-rule="nonzero"/><path fill="#051c34" d="M 177.972656 142.351562 L 196.917969 142.351562 L 196.917969 146.148438 L 177.972656 146.148438 L 177.972656 142.351562 " fill-opacity="1" fill-rule="nonzero"/><g fill="#051c34" fill-opacity="1"><g transform="translate(135.328532, 265.05839)"><g><path d="M 8.546875 -0.796875 C 8.667969 -0.304688 8.957031 0.171875 9.464844 0.171875 C 9.976562 0.171875 10.246094 -0.289062 10.367188 -0.78125 L 12.898438 -11.285156 C 12.917969 -11.371094 12.933594 -11.4375 12.933594 -11.472656 C 12.933594 -11.898438 12.472656 -12.082031 12.117188 -12.082031 C 11.84375 -12.082031 11.640625 -11.898438 11.539062 -11.589844 L 9.433594 -2.53125 L 7.460938 -11.164062 C 7.324219 -11.761719 7.136719 -12.152344 6.59375 -12.152344 C 6.015625 -12.152344 5.863281 -11.792969 5.710938 -11.164062 L 3.738281 -2.53125 L 1.632812 -11.589844 C 1.546875 -11.929688 1.292969 -12.082031 1.019531 -12.082031 C 0.664062 -12.082031 0.253906 -11.863281 0.253906 -11.488281 C 0.253906 -11.488281 0.253906 -11.300781 0.273438 -11.300781 L 2.804688 -0.78125 C 2.921875 -0.273438 3.230469 0.171875 3.722656 0.171875 C 4.28125 0.171875 4.503906 -0.339844 4.621094 -0.78125 L 6.59375 -9.347656 Z M 8.546875 -0.796875 "/></g></g></g><g fill="#051c34" fill-opacity="1"><g transform="translate(149.007439, 265.05839)"><g><path d="M 3.941406 -1.035156 C 2.71875 -1.035156 2.089844 -1.648438 2.089844 -2.601562 L 2.089844 -3.601562 C 2.683594 -3.5 3.3125 -3.449219 3.824219 -3.449219 C 5.847656 -3.449219 6.695312 -4.402344 6.695312 -5.964844 C 6.695312 -7.648438 5.761719 -8.734375 3.875 -8.734375 C 1.851562 -8.734375 0.765625 -7.496094 0.765625 -5.863281 L 0.765625 -2.683594 C 0.765625 -1.085938 1.871094 0.136719 3.789062 0.136719 C 4.707031 0.136719 6.542969 -0.136719 6.542969 -0.96875 C 6.542969 -1.273438 6.289062 -1.5625 5.949219 -1.5625 C 5.828125 -1.5625 5.746094 -1.53125 5.710938 -1.511719 C 5.117188 -1.242188 4.65625 -1.035156 3.941406 -1.035156 Z M 5.386719 -5.964844 C 5.386719 -5.269531 5.167969 -4.570312 3.875 -4.570312 C 3.535156 -4.570312 2.71875 -4.605469 2.089844 -4.691406 L 2.089844 -5.980469 C 2.089844 -6.933594 2.734375 -7.527344 3.839844 -7.527344 C 4.828125 -7.527344 5.386719 -7.070312 5.386719 -5.964844 Z M 5.386719 -5.964844 "/></g></g></g><g fill="#051c34" fill-opacity="1"><g transform="translate(156.892032, 265.05839)"><g><path d="M 2.582031 -6.730469 C 3.058594 -7.257812 3.671875 -7.578125 4.519531 -7.578125 C 5.660156 -7.578125 6.152344 -7.019531 6.152344 -6.085938 L 6.152344 -2.890625 C 6.152344 -1.765625 5.589844 -1.085938 4.367188 -1.085938 C 3.261719 -1.085938 2.582031 -1.632812 2.582031 -2.550781 Z M 1.257812 -2.550781 C 1.257812 -1.054688 2.394531 0.136719 4.367188 0.136719 C 6.441406 0.136719 7.476562 -1.191406 7.476562 -2.890625 L 7.476562 -6.085938 C 7.476562 -7.578125 6.78125 -8.734375 4.84375 -8.734375 C 3.925781 -8.734375 3.210938 -8.480469 2.582031 -8.039062 L 2.582031 -11.675781 C 2.582031 -12.015625 2.34375 -12.320312 1.921875 -12.320312 C 1.496094 -12.320312 1.257812 -12.015625 1.257812 -11.675781 Z M 1.257812 -2.550781 "/></g></g></g><g fill="#051c34" fill-opacity="1"><g transform="translate(165.626222, 265.05839)"><g/></g></g><g fill="#051c34" fill-opacity="1"><g transform="translate(171.216869, 265.05839)"><g><path d="M 8.632812 -4.488281 L 8.632812 -7.664062 C 8.632812 -9.941406 7.445312 -12 3.976562 -12 L 2.054688 -12 C 1.613281 -12 1.242188 -11.625 1.242188 -11.183594 L 1.242188 -0.816406 C 1.242188 -0.375 1.613281 0 2.054688 0 L 3.976562 0 C 7.460938 0 8.632812 -2.160156 8.632812 -4.488281 Z M 7.273438 -4.488281 C 7.273438 -2.734375 6.507812 -1.324219 4.265625 -1.324219 L 2.601562 -1.324219 L 2.601562 -10.671875 L 4.265625 -10.671875 C 6.476562 -10.671875 7.273438 -9.347656 7.273438 -7.664062 Z M 7.273438 -4.488281 "/></g></g></g><g fill="#051c34" fill-opacity="1"><g transform="translate(181.123518, 265.05839)"><g><path d="M 3.941406 -1.035156 C 2.71875 -1.035156 2.089844 -1.648438 2.089844 -2.601562 L 2.089844 -3.601562 C 2.683594 -3.5 3.3125 -3.449219 3.824219 -3.449219 C 5.847656 -3.449219 6.695312 -4.402344 6.695312 -5.964844 C 6.695312 -7.648438 5.761719 -8.734375 3.875 -8.734375 C 1.851562 -8.734375 0.765625 -7.496094 0.765625 -5.863281 L 0.765625 -2.683594 C 0.765625 -1.085938 1.871094 0.136719 3.789062 0.136719 C 4.707031 0.136719 6.542969 -0.136719 6.542969 -0.96875 C 6.542969 -1.273438 6.289062 -1.5625 5.949219 -1.5625 C 5.828125 -1.5625 5.746094 -1.53125 5.710938 -1.511719 C 5.117188 -1.242188 4.65625 -1.035156 3.941406 -1.035156 Z M 5.386719 -5.964844 C 5.386719 -5.269531 5.167969 -4.570312 3.875 -4.570312 C 3.535156 -4.570312 2.71875 -4.605469 2.089844 -4.691406 L 2.089844 -5.980469 C 2.089844 -6.933594 2.734375 -7.527344 3.839844 -7.527344 C 4.828125 -7.527344 5.386719 -7.070312 5.386719 -5.964844 Z M 5.386719 -5.964844 "/></g></g></g><g fill="#051c34" fill-opacity="1"><g transform="translate(189.008111, 265.05839)"><g><path d="M 6.867188 -7.851562 C 6.984375 -8.292969 6.644531 -8.683594 6.238281 -8.683594 C 5.980469 -8.683594 5.726562 -8.496094 5.640625 -8.242188 L 3.6875 -1.835938 L 1.699219 -8.242188 C 1.597656 -8.53125 1.359375 -8.683594 1.105469 -8.683594 C 0.714844 -8.683594 0.324219 -8.3125 0.457031 -7.902344 L 2.820312 -0.644531 C 3.007812 -0.101562 3.230469 0.136719 3.6875 0.136719 C 4.128906 0.136719 4.367188 -0.101562 4.554688 -0.664062 Z M 6.867188 -7.851562 "/></g></g></g><g fill="#051c34" fill-opacity="1"><g transform="translate(196.807745, 265.05839)"><g><path d="M 3.941406 -1.035156 C 2.71875 -1.035156 2.089844 -1.648438 2.089844 -2.601562 L 2.089844 -3.601562 C 2.683594 -3.5 3.3125 -3.449219 3.824219 -3.449219 C 5.847656 -3.449219 6.695312 -4.402344 6.695312 -5.964844 C 6.695312 -7.648438 5.761719 -8.734375 3.875 -8.734375 C 1.851562 -8.734375 0.765625 -7.496094 0.765625 -5.863281 L 0.765625 -2.683594 C 0.765625 -1.085938 1.871094 0.136719 3.789062 0.136719 C 4.707031 0.136719 6.542969 -0.136719 6.542969 -0.96875 C 6.542969 -1.273438 6.289062 -1.5625 5.949219 -1.5625 C 5.828125 -1.5625 5.746094 -1.53125 5.710938 -1.511719 C 5.117188 -1.242188 4.65625 -1.035156 3.941406 -1.035156 Z M 5.386719 -5.964844 C 5.386719 -5.269531 5.167969 -4.570312 3.875 -4.570312 C 3.535156 -4.570312 2.71875 -4.605469 2.089844 -4.691406 L 2.089844 -5.980469 C 2.089844 -6.933594 2.734375 -7.527344 3.839844 -7.527344 C 4.828125 -7.527344 5.386719 -7.070312 5.386719 -5.964844 Z M 5.386719 -5.964844 "/></g></g></g><g fill="#051c34" fill-opacity="1"><g transform="translate(204.692335, 265.05839)"><g><path d="M 1.257812 -1.597656 C 1.257812 -0.0664062 1.902344 0.136719 2.328125 0.136719 C 2.667969 0.136719 2.941406 -0.136719 2.941406 -0.476562 C 2.941406 -0.613281 2.871094 -0.730469 2.820312 -0.796875 C 2.617188 -1.003906 2.582031 -1.222656 2.582031 -1.597656 L 2.582031 -11.660156 C 2.582031 -12.03125 2.292969 -12.320312 1.921875 -12.320312 C 1.546875 -12.320312 1.257812 -12.015625 1.257812 -11.660156 Z M 1.257812 -1.597656 "/></g></g></g><g fill="#051c34" fill-opacity="1"><g transform="translate(209.059549, 265.05839)"><g><path d="M 3.941406 0.136719 C 6.015625 0.136719 7.121094 -1.191406 7.121094 -2.890625 L 7.121094 -5.726562 C 7.121094 -7.425781 6.015625 -8.753906 3.941406 -8.753906 C 1.871094 -8.753906 0.765625 -7.425781 0.765625 -5.726562 L 0.765625 -2.890625 C 0.765625 -1.191406 1.871094 0.136719 3.941406 0.136719 Z M 3.941406 -1.085938 C 2.71875 -1.085938 2.089844 -1.765625 2.089844 -2.890625 L 2.089844 -5.746094 C 2.089844 -6.847656 2.71875 -7.527344 3.941406 -7.527344 C 5.167969 -7.527344 5.796875 -6.847656 5.796875 -5.746094 L 5.796875 -2.890625 C 5.796875 -1.765625 5.167969 -1.085938 3.941406 -1.085938 Z M 3.941406 -1.085938 "/></g></g></g><g fill="#051c34" fill-opacity="1"><g transform="translate(217.43691, 265.05839)"><g><path d="M 4.519531 0.117188 C 6.679688 0.117188 7.359375 -1.292969 7.359375 -3.3125 L 7.359375 -5.523438 C 7.359375 -7.425781 6.441406 -8.734375 4.65625 -8.734375 C 3.773438 -8.734375 2.941406 -8.394531 2.175781 -7.988281 C 2.003906 -8.226562 1.785156 -8.394531 1.511719 -8.394531 C 1.222656 -8.394531 0.917969 -8.15625 0.917969 -7.800781 C 0.917969 -7.648438 0.96875 -7.5625 1.035156 -7.460938 C 1.242188 -7.15625 1.308594 -6.832031 1.308594 -6.269531 L 1.308594 3.007812 C 1.308594 3.363281 1.546875 3.652344 1.972656 3.652344 C 2.394531 3.652344 2.632812 3.363281 2.632812 3.007812 L 2.632812 -0.203125 C 3.246094 0 3.941406 0.117188 4.519531 0.117188 Z M 2.632812 -6.269531 C 2.632812 -6.476562 2.601562 -6.714844 2.550781 -6.96875 C 3.128906 -7.324219 3.808594 -7.546875 4.382812 -7.546875 C 5.507812 -7.546875 6.035156 -6.847656 6.035156 -5.523438 L 6.035156 -3.3125 C 6.035156 -1.734375 5.589844 -1.035156 4.351562 -1.035156 C 3.925781 -1.035156 3.179688 -1.136719 2.632812 -1.394531 Z M 2.632812 -6.269531 "/></g></g></g><g fill="#051c34" fill-opacity="1"><g transform="translate(226.052159, 265.05839)"><g><path d="M 3.941406 -1.035156 C 2.71875 -1.035156 2.089844 -1.648438 2.089844 -2.601562 L 2.089844 -3.601562 C 2.683594 -3.5 3.3125 -3.449219 3.824219 -3.449219 C 5.847656 -3.449219 6.695312 -4.402344 6.695312 -5.964844 C 6.695312 -7.648438 5.761719 -8.734375 3.875 -8.734375 C 1.851562 -8.734375 0.765625 -7.496094 0.765625 -5.863281 L 0.765625 -2.683594 C 0.765625 -1.085938 1.871094 0.136719 3.789062 0.136719 C 4.707031 0.136719 6.542969 -0.136719 6.542969 -0.96875 C 6.542969 -1.273438 6.289062 -1.5625 5.949219 -1.5625 C 5.828125 -1.5625 5.746094 -1.53125 5.710938 -1.511719 C 5.117188 -1.242188 4.65625 -1.035156 3.941406 -1.035156 Z M 5.386719 -5.964844 C 5.386719 -5.269531 5.167969 -4.570312 3.875 -4.570312 C 3.535156 -4.570312 2.71875 -4.605469 2.089844 -4.691406 L 2.089844 -5.980469 C 2.089844 -6.933594 2.734375 -7.527344 3.839844 -7.527344 C 4.828125 -7.527344 5.386719 -7.070312 5.386719 -5.964844 Z M 5.386719 -5.964844 "/></g></g></g><g fill="#051c34" fill-opacity="1"><g transform="translate(233.936748, 265.05839)"><g><path d="M 2.632812 -6.269531 C 2.632812 -6.40625 2.617188 -6.558594 2.601562 -6.730469 C 3.449219 -7.359375 4.0625 -7.359375 4.757812 -7.34375 C 5.117188 -7.324219 5.421875 -7.597656 5.421875 -8.023438 C 5.421875 -8.378906 5.21875 -8.667969 4.539062 -8.667969 C 3.890625 -8.667969 2.941406 -8.394531 2.210938 -7.9375 C 2.039062 -8.207031 1.800781 -8.394531 1.53125 -8.394531 C 1.207031 -8.394531 0.917969 -8.15625 0.917969 -7.800781 C 0.917969 -7.648438 0.96875 -7.5625 1.035156 -7.460938 C 1.242188 -7.15625 1.308594 -6.832031 1.308594 -6.269531 L 1.308594 -0.527344 C 1.308594 -0.152344 1.597656 0.136719 1.972656 0.136719 C 2.34375 0.136719 2.632812 -0.152344 2.632812 -0.527344 Z M 2.632812 -6.269531 "/></g></g></g></svg>